<svg id="Capa_1" enable-background="new 0 0 512 512" height="512" viewBox="0 0 512 512" width="512" xmlns="http://www.w3.org/2000/svg"><g><g><path d="m349.241.002h-329.241c-11.046 0-20 8.954-20 20v201.452c0 11.046 8.954 20 20 20h30.215l21.014 33.131c5.891 9.288 19.443 9.288 25.334 0l21.014-33.131h231.664c11.046 0 20-8.954 20-20v-201.452c0-11.045-8.954-20-20-20z" fill="#52efff"/><path d="m283.474 0h-158.751c-13.807 0-25 11.193-25 25 0 13.807 11.193 25 25 25h158.751c13.807 0 25-11.193 25-25 0-13.807-11.192-25-25-25z" fill="#99faff"/><path d="m242.884 0h-29.879c-13.807 0-25 11.193-25 25 0 13.807 11.193 25 25 25h29.879c13.807 0 25-11.193 25-25 0-13.807-11.193-25-25-25z" fill="#d2fffe"/><path d="m369.24 20v201.45c0 11.05-8.95 20-20 20h-231.66l-21.02 33.14c-5.89 9.28-19.44 9.28-25.33 0l-21.01-33.14h-30.22c-11.05 0-20-8.95-20-20v-28.11c32.35 19.44 70.23 30.62 110.72 30.62 118.91 0 215.3-96.39 215.3-215.3 0-2.9-.06-5.79-.17-8.66h23.39c11.05 0 20 8.96 20 20z" fill="#06d0ff"/><path d="m369.24 102.52v118.93c0 11.05-8.95 20-20 20h-55.29c40.75-34.25 68.62-83.33 75.29-138.93z" fill="#00addb"/><g><g><g><path d="m157.189 35.168h-105.029c-11.321 0-20.499 9.178-20.499 20.499 0 11.321 9.178 20.499 20.499 20.499h105.029c11.321 0 20.499-9.178 20.499-20.499-.001-11.322-9.178-20.499-20.499-20.499z" fill="#038fbf"/></g><g><path d="m112.544 35.168h-24.935c-11.321 0-20.499 9.178-20.499 20.499 0 11.321 9.178 20.499 20.499 20.499h24.935c11.321 0 20.499-9.178 20.499-20.499 0-11.322-9.178-20.499-20.499-20.499z" fill="#00addb"/></g></g><g><g><path d="m243.162 136.326h-191.002c-11.321 0-20.499-9.177-20.499-20.499s9.177-20.499 20.499-20.499h191.002c11.321 0 20.499 9.177 20.499 20.499s-9.177 20.499-20.499 20.499z" fill="#038fbf"/></g><g><path d="m196.336 95.329h-105.029c-11.321 0-20.499 9.178-20.499 20.499 0 11.321 9.178 20.499 20.499 20.499h105.029c11.321 0 20.499-9.178 20.499-20.499 0-11.322-9.178-20.499-20.499-20.499z" fill="#00addb"/></g><g><path d="m151.691 95.329h-24.935c-11.321 0-20.499 9.178-20.499 20.499 0 11.321 9.178 20.499 20.499 20.499h24.935c11.321 0 20.499-9.178 20.499-20.499 0-11.322-9.177-20.499-20.499-20.499z" fill="#06d0ff"/></g></g><g><g><path d="m303.162 196.487h-251.002c-11.321 0-20.499-9.177-20.499-20.499 0-11.321 9.177-20.499 20.499-20.499h251.002c11.321 0 20.499 9.177 20.499 20.499s-9.177 20.499-20.499 20.499z" fill="#038fbf"/></g><g><g><path d="m236.336 155.49h-125.029c-11.321 0-20.499 9.178-20.499 20.499 0 11.321 9.178 20.499 20.499 20.499h125.029c11.321 0 20.499-9.178 20.499-20.499 0-11.322-9.178-20.499-20.499-20.499z" fill="#00addb"/></g><g><path d="m191.691 155.49h-44.935c-11.321 0-20.499 9.178-20.499 20.499 0 11.321 9.178 20.499 20.499 20.499h44.935c11.321 0 20.499-9.178 20.499-20.499 0-11.322-9.177-20.499-20.499-20.499z" fill="#06d0ff"/></g></g></g></g></g><g><g><g><circle cx="199.269" cy="343.666" fill="#9fc3cc" r="38.731"/></g><g><circle cx="473.269" cy="343.666" fill="#fcad97" r="38.731"/></g></g><path d="m295.09 180.301s-62.529-28.475-95.451 17.08c-26.218 36.279-20.345 77.862-11.113 105.876 6.348 19.262 24.526 32.113 44.799 31.515l61.765-1.82z" fill="#266d6b"/><path d="m295.089 180.297v152.66l-61.76 1.82c-20.28.59-38.45-12.26-44.8-31.52-1.41-4.28-2.74-8.87-3.89-13.72 43.43-7.35 76.51-45.15 76.51-90.67 0-9.49-1.44-18.65-4.12-27.27 20.99.93 38.06 8.7 38.06 8.7z" fill="#145956"/><path d="m335.653 512c-64.217 0-117.693-49.265-122.949-113.266l-4.137-50.381c-4.272-52.026 36.799-96.609 89.001-96.609h173.106l-12.071 146.99c-5.257 64.001-58.733 113.266-122.95 113.266z" fill="#ffccb7"/><path d="m335.653 512c-64.217 0-117.693-49.265-122.949-113.266l-4.137-50.381c-4.272-52.026 36.799-96.609 89.001-96.609h173.106l-12.071 146.99c-5.257 64.001-58.733 113.266-122.95 113.266z" fill="#ffccb7"/><path d="m470.669 251.747-5.98 72.86h-67.61c-3.2 0-5.58-2.96-4.87-6.08 6.83-30.1-9.97-56.75-33.39-66.78z" fill="#fcad97"/><path d="m285.723 427.878c-3.117 0-5.456 2.819-4.926 5.891 4.577 26.5 27.664 46.66 55.471 46.66 27.808 0 50.894-20.16 55.471-46.66.531-3.072-1.809-5.891-4.926-5.891z" fill="#ff4881"/><path d="m335.649 251.747v260.25c-64.21 0-117.69-49.26-122.94-113.26l-4.14-50.38c-4.27-52.03 36.8-96.61 89-96.61z" fill="#cbe8ea"/><path d="m228.826 370.643c11.693 0 20.893-9.987 19.935-21.64l-.323-3.926c-1.14-13.89 3.43-27.18 12.87-37.44 3.113-3.375 6.598-6.251 10.372-8.589 8.507-5.272 11.608-16.145 7.336-25.195-.058-.123-.116-.245-.173-.368-4.994-10.595-18.132-14.645-28.099-8.493-27.549 17.005-45.036 48.511-42.176 83.365l.322 3.922c.854 10.377 9.524 18.364 19.936 18.364z" fill="#eaf4f4"/><path d="m246.662 299.676c-.134-.116-.268-.231-.403-.347-10.135-8.741-25.899-5.115-31.078 7.226-1.712 4.08-3.128 8.309-4.224 12.66-3.175 12.616 6.396 24.85 19.406 24.85 9.117 0 17.16-6.147 19.355-14.996.568-2.292 1.303-4.536 2.2-6.719 3.262-7.941 1.25-17.072-5.256-22.674z" fill="#fff"/><path d="m280.797 433.768c4.577 26.5 27.664 46.66 55.471 46.66v-52.55h-50.546c-3.116 0-5.455 2.819-4.925 5.89z" fill="#038fbf"/><path d="m295.09 210.214h107.502v41.53h-107.502z" fill="#0d4944"/><path d="m397.081 305.939h90.617c2.081 0 3.943-1.282 4.677-3.229 2.921-7.747 9.42-29.599 7.721-67.346-2.626-58.353-55.824-95.984-123.233-95.984s-81.773 40.923-81.773 40.923v71.443c41.4-51.539 109.771-7.622 97.117 48.108-.708 3.117 1.675 6.085 4.874 6.085z" fill="#3b7c7f"/><path d="m492.379 302.707c-.74 1.95-2.6 3.23-4.68 3.23h-90.62c-3.2 0-5.58-2.97-4.87-6.09.8-3.49 1.27-6.94 1.45-10.31 43.52-4.92 77.34-41.85 77.34-86.69 0-13.43-3.04-26.16-8.46-37.53 22.19 16.71 36.24 40.77 37.56 70.05 1.7 37.74-4.8 59.6-7.72 67.34z" fill="#266d6b"/><path d="m466.111 200.15c.106-.081.213-.162.319-.242 10.057-7.643 10.464-22.663.825-30.827-22.36-18.94-54.345-29.704-90.396-29.704-1.369 0-2.715.017-4.04.05-10.856.272-19.515 9.14-19.515 19.999 0 11.245 9.259 20.274 20.5 19.989.995-.025 2.013-.038 3.055-.038 24.51 0 46.44 6.39 61.77 18 .967.732 1.9 1.481 2.802 2.246 7.045 5.976 17.326 6.121 24.68.527z" fill="#51888e"/><path d="m423.739 146.059c-5.514-1.673-11.238-3.046-17.14-4.102-12.186-2.18-23.336 7.348-23.336 19.727 0 9.624 6.838 17.97 16.313 19.659 4.238.755 8.336 1.725 12.27 2.902 9.295 2.781 19.266-1.385 23.525-10.101.094-.193.188-.385.283-.578 5.331-10.891-.311-23.986-11.915-27.507z" fill="#679ca5"/><path d="" fill="#51888e"/><circle cx="289.519" cy="278.149" fill="#9fc3cc" r="11.422"/><circle cx="251.991" cy="295.693" fill="#9fc3cc" r="11.422"/><path d="m268.639 438.297c0 16-6.03 30.59-15.95 41.63-22.4-20.35-37.33-48.89-39.98-81.19l-1.86-22.62c32.3 2.33 57.79 29.28 57.79 62.18z" fill="#b6d7e1"/><path d="m202.461 240.199c9.533 3.197 19.884-1.29 24.224-10.36 1.507-3.149 3.298-6.161 5.373-9.032 1.406-1.946 3.053-3.83 5.336-5.385 6.56-4.472 9.815-12.413 7.781-20.087l-.103-.39c-3.707-13.988-20.369-19.9-31.999-11.29-4.816 3.566-9.353 8.074-13.434 13.722-3.6 4.981-6.594 10.062-9.057 15.194-5.18 10.794.146 23.688 11.497 27.499.127.043.254.086.382.129z" fill="#3b7c7f"/></g><g><g><g><path d="m245.625 355.007c-5.395-2.548-7.911-8.902-5.629-14.49 6.54-16.015 24.066-24.65 40.765-20.088 16.692 4.561 27.398 20.909 24.89 38.025-.906 6.176-6.647 10.449-12.823 9.544-6.173-.907-10.45-6.646-9.545-12.824.854-5.821-2.791-11.38-8.479-12.937-5.688-1.554-11.655 1.382-13.879 6.828-2.361 5.78-8.959 8.551-14.738 6.191-.189-.079-.377-.161-.562-.249z" fill="#038fbf"/></g></g><g><g><path d="m425.672 355.007c5.395-2.548 7.91-8.902 5.629-14.49-6.54-16.015-24.066-24.65-40.765-20.088-16.692 4.561-27.398 20.909-24.89 38.025.906 6.176 6.647 10.449 12.823 9.544 6.173-.907 10.45-6.646 9.545-12.824-.854-5.821 2.791-11.38 8.479-12.937 5.688-1.554 11.655 1.382 13.879 6.828 2.361 5.78 8.959 8.551 14.738 6.191.19-.079.377-.161.562-.249z" fill="#0d4944"/></g></g></g></g></svg>