<?xml version="1.0" encoding="utf-8"?>
<!-- Generator: Adobe Illustrator 25.1.0, SVG Export Plug-In . SVG Version: 6.00 Build 0)  -->
<svg version="1.1" id="Capa_1" xmlns="http://www.w3.org/2000/svg" xmlns:xlink="http://www.w3.org/1999/xlink" x="0px" y="0px"
	 viewBox="0 0 449.9 247" style="enable-background:new 0 0 449.9 247;" xml:space="preserve">
<style type="text/css">
	.st0{fill:#E73E64;}
</style>
<g>
	<polygon class="st0" points="105.4,73.3 105.4,142.5 98.8,142.5 98.8,83.2 	"/>
	<polygon points="66.3,116.2 64.1,116.2 31.3,65.3 31.3,142.5 24.8,142.5 24.8,56.9 32.5,56.9 65,106.8 97.2,56.9 105.1,56.9 	"/>
	<rect x="135" y="56.9" width="6.6" height="85.6"/>
	<polygon points="174.1,56.9 232.2,127.7 232.2,56.9 238.7,56.9 238.7,142.5 236.2,142.5 177.8,71.9 177.8,142.5 171.2,142.5 
		171.2,56.9 	"/>
	<polygon points="293.1,63.5 261.8,63.5 261.8,56.9 329.3,56.9 329.3,63.5 299.6,63.5 299.6,142.5 293.1,142.5 	"/>
	<path d="M422.2,142.5l-9.6-21.4h-52l-9.5,21.4h-6.5l38.4-85.6h7.2l38.4,85.6H422.2z M409.6,114.6l-22.9-51.9l-22.9,51.9H409.6z"/>
	<path d="M175,193.2h-1.1v-20.4c5.2,0,7.9,0,8.4,0c0.4,0,1,0.1,1.8,0.4c0.7,0.2,1.4,0.6,2.1,1.2c1.1,1,1.6,2.4,1.6,4.2
		c0,1.4-0.4,2.5-1.3,3.4c-1.3,1.1-3,1.7-5,1.7H175L175,193.2L175,193.2z M181.4,182.6c0.1,0,0.4,0,0.8,0c0.4,0,1-0.1,1.7-0.3
		c0.7-0.2,1.2-0.5,1.8-1c0.7-0.7,1-1.5,1-2.6c0-1.4-0.4-2.6-1.3-3.4c-1-0.9-2.3-1.3-4-1.3H175v8.7H181.4z"/>
	<path d="M175,193.2h-1.1v-20.4c5.2,0,7.9,0,8.4,0c0.4,0,1,0.1,1.8,0.4c0.7,0.2,1.4,0.6,2.1,1.2c1.1,1,1.6,2.4,1.6,4.2
		c0,1.4-0.4,2.5-1.3,3.4c-1.3,1.1-3,1.7-5,1.7H175L175,193.2L175,193.2z M181.4,182.6c0.1,0,0.4,0,0.8,0c0.4,0,1-0.1,1.7-0.3
		c0.7-0.2,1.2-0.5,1.8-1c0.7-0.7,1-1.5,1-2.6c0-1.4-0.4-2.6-1.3-3.4c-1-0.9-2.3-1.3-4-1.3H175v8.7H181.4z"/>
	<path d="M203.7,193.4c-1.8,0-3.5-0.5-5-1.4c-1.5-0.9-2.7-2.2-3.6-3.8c-0.9-1.6-1.3-3.3-1.3-5.3s0.4-3.7,1.3-5.3
		c0.9-1.6,2.1-2.9,3.6-3.8c1.5-0.9,3.2-1.4,5-1.4c1.8,0,3.5,0.5,5,1.4c1.5,1,2.7,2.2,3.6,3.8c0.9,1.6,1.3,3.3,1.3,5.3
		c0,1.9-0.4,3.7-1.3,5.3c-0.9,1.6-2.1,2.9-3.6,3.8C207.2,193,205.5,193.4,203.7,193.4 M203.7,192.4c1.7,0,3.1-0.4,4.5-1.3
		c1.3-0.9,2.4-2,3.2-3.4c0.8-1.4,1.2-3,1.2-4.7c0-1.7-0.4-3.3-1.2-4.7c-0.8-1.4-1.9-2.5-3.2-3.4c-1.3-0.9-2.9-1.3-4.5-1.3
		s-3.1,0.4-4.5,1.3s-2.4,2-3.2,3.4c-0.8,1.4-1.2,3-1.2,4.7s0.4,3.3,1.2,4.7c0.8,1.4,1.9,2.5,3.2,3.4S202,192.4,203.7,192.4"/>
	<path d="M203.7,193.4c-1.8,0-3.5-0.5-5-1.4c-1.5-0.9-2.7-2.2-3.6-3.8c-0.9-1.6-1.3-3.3-1.3-5.3s0.4-3.7,1.3-5.3
		c0.9-1.6,2.1-2.9,3.6-3.8c1.5-0.9,3.2-1.4,5-1.4c1.8,0,3.5,0.5,5,1.4c1.5,1,2.7,2.2,3.6,3.8c0.9,1.6,1.3,3.3,1.3,5.3
		c0,1.9-0.4,3.7-1.3,5.3c-0.9,1.6-2.1,2.9-3.6,3.8C207.2,193,205.5,193.4,203.7,193.4z M203.7,192.4c1.7,0,3.1-0.4,4.5-1.3
		c1.3-0.9,2.4-2,3.2-3.4c0.8-1.4,1.2-3,1.2-4.7c0-1.7-0.4-3.3-1.2-4.7c-0.8-1.4-1.9-2.5-3.2-3.4c-1.3-0.9-2.9-1.3-4.5-1.3
		s-3.1,0.4-4.5,1.3s-2.4,2-3.2,3.4c-0.8,1.4-1.2,3-1.2,4.7s0.4,3.3,1.2,4.7c0.8,1.4,1.9,2.5,3.2,3.4S202,192.4,203.7,192.4z"/>
	<rect x="221.9" y="172.8" width="1.1" height="20.4"/>
	<rect x="221.9" y="172.8" width="1.1" height="20.4"/>
	<polygon points="248.4,193.3 231.6,175.3 231.6,193.2 230.5,193.2 230.5,172.7 247.3,190.6 247.3,172.8 248.4,172.8 	"/>
	<polygon points="248.4,193.3 231.6,175.3 231.6,193.2 230.5,193.2 230.5,172.7 247.3,190.6 247.3,172.8 248.4,172.8 	"/>
	<polygon points="264.6,193.2 263.5,193.2 263.5,173.9 255.8,173.9 255.8,172.8 272.4,172.8 272.4,173.9 264.6,173.9 	"/>
	<polygon points="264.6,193.2 263.5,193.2 263.5,173.9 255.8,173.9 255.8,172.8 272.4,172.8 272.4,173.9 264.6,173.9 	"/>
</g>
</svg>
